<?xml version="1.0" standalone="no"?>
<!DOCTYPE svg PUBLIC "-//W3C//DTD SVG 20010904//EN"
 "http://www.w3.org/TR/2001/REC-SVG-20010904/DTD/svg10.dtd">
<svg version="1.0" xmlns="http://www.w3.org/2000/svg"
 width="512.000000pt" height="512.000000pt" viewBox="0 0 512.000000 512.000000"
 preserveAspectRatio="xMidYMid meet">
<metadata>
Created by potrace 1.11, written by Peter Selinger 2001-2013
</metadata>
<g transform="translate(0.000000,512.000000) scale(0.100000,-0.100000)"
fill="#000000" stroke="none">
<path d="M837 5050 c-109 -29 -209 -83 -282 -155 -34 -32 -99 -130 -124 -186
-42 -92 -59 -156 -81 -299 -5 -30 -8 -883 -7 -1895 l3 -1840 27 -99 c91 -336
305 -522 612 -531 113 -4 187 6 379 50 58 13 79 18 144 30 15 3 35 8 44 11 10
3 30 7 44 10 14 3 97 20 183 39 86 19 168 36 184 39 15 3 37 8 48 11 12 4 31
8 42 10 12 2 65 13 117 24 114 25 325 70 360 77 14 3 54 12 90 20 75 17 293
64 330 70 14 3 41 9 60 14 35 9 263 58 310 66 14 3 61 13 105 24 44 10 94 21
110 24 53 11 69 14 145 31 41 9 85 18 96 21 158 31 413 89 464 105 300 95 474
309 528 649 10 63 9 2313 -1 2378 -48 307 -197 508 -450 608 -48 19 -315 84
-492 120 -49 10 -115 24 -385 84 -96 22 -220 49 -275 61 -55 11 -149 32 -210
45 -105 23 -123 27 -171 38 -86 19 -222 48 -239 52 -11 2 -29 6 -40 8 -15 3
-203 45 -325 71 -27 6 -191 42 -545 119 -192 42 -368 80 -390 86 -142 35 -298
39 -408 10z"/>
</g>
</svg>
